<?xml version="1.0" standalone="no"?>
<!DOCTYPE svg PUBLIC "-//W3C//DTD SVG 20010904//EN"
 "http://www.w3.org/TR/2001/REC-SVG-20010904/DTD/svg10.dtd">
<svg version="1.0" xmlns="http://www.w3.org/2000/svg"
 width="520.000000pt" height="520.000000pt" viewBox="0 0 520.000000 520.000000"
 preserveAspectRatio="xMidYMid meet">
<metadata>
Created by potrace 1.14, written by Peter Selinger 2001-2017
</metadata>
<g transform="translate(0.000000,520.000000) scale(0.100000,-0.100000)"
fill="#000000" stroke="none">
<path d="M2338 5195 c-2 -2 -46 -6 -98 -9 -52 -4 -108 -9 -125 -11 -16 -2 -50
-7 -75 -10 -25 -3 -54 -7 -65 -9 -11 -2 -40 -7 -65 -10 -66 -10 -135 -25 -225
-48 -44 -11 -84 -21 -90 -23 -48 -10 -167 -47 -210 -66 -11 -5 -44 -18 -74
-29 -148 -57 -411 -209 -513 -297 -131 -114 -221 -205 -295 -300 -111 -143
-212 -320 -291 -513 -21 -52 -40 -98 -41 -102 -1 -4 -3 -13 -5 -20 -40 -127
-49 -155 -52 -168 -27 -118 -60 -280 -70 -349 -4 -25 -8 -55 -10 -66 -2 -11
-6 -53 -10 -94 -3 -41 -8 -89 -11 -105 -4 -17 -7 -452 -9 -966 -2 -1067 -3
-1056 67 -1290 13 -41 26 -82 30 -90 99 -216 194 -331 358 -434 112 -70 213
-111 346 -142 72 -17 79 -18 180 -31 75 -10 3170 -11 3245 -1 186 24 319 62
445 126 124 64 244 166 312 266 15 22 31 43 34 46 11 9 68 127 93 192 22 60
52 178 62 243 3 17 9 62 14 100 10 77 7 1925 -4 1990 -3 22 -8 65 -11 95 -9
93 -13 125 -30 220 -1 8 -6 35 -10 60 -52 316 -187 664 -355 916 -40 59 -78
113 -84 120 -6 6 -25 29 -42 50 -18 22 -63 70 -100 108 -59 59 -101 95 -247
212 -9 8 -20 14 -23 14 -3 0 -20 11 -38 25 -18 14 -37 25 -41 25 -5 0 -16 6
-24 14 -27 24 -250 132 -356 171 -145 54 -350 110 -475 130 -25 4 -54 9 -65
11 -66 12 -133 22 -210 29 -33 3 -73 8 -90 11 -33 5 -642 14 -647 9z"/>
</g>
</svg>
